<svg id="Layer_1" data-name="Layer 1" xmlns="http://www.w3.org/2000/svg" viewBox="0 0 292 292"><defs><style>.cls-1{fill:#ed1c24;}</style></defs><polygon class="cls-1" points="248.9 249.94 204 236.68 197.43 283.03 161.8 252.66 136.94 292.33 116.74 250.09 77.89 276.22 76.63 229.42 30.51 237.5 48.39 194.22 2.98 182.84 36.91 150.58 0.05 121.71 44.17 106.04 22.24 64.68 68.92 68.31 65.71 21.6 106.88 43.91 122.94 -0.07 151.48 37.05 184.04 3.41 195.01 48.93 238.45 31.44 229.95 77.48 276.74 79.18 250.26 117.78 292.31 138.36 252.41 162.86 282.47 198.76 236.05 204.91 248.9 249.94"/></svg>